<svg xmlns="http://www.w3.org/2000/svg" width="1600" height="1600" preserveAspectRatio="xMidYMid meet" version="1.0" viewBox="0 0 1200 1200"><metadata>Created by potrace 1.14, written by Peter Selinger 2001-2017</metadata><g fill="#000" stroke="none"><path d="M557 11443 c-4 -3 -7 -2456 -7 -5450 l0 -5443 5450 0 5450 0 -2 5448 -3 5447 -5441 3 c-2992 1 -5444 -1 -5447 -5z m3016 -2373 c337 -49 568 -351 503 -660 -30 -142 -106 -256 -230 -345 -79 -56 -141 -83 -234 -101 -210 -40 -414 20 -561 165 -110 109 -161 231 -161 381 0 156 41 257 149 373 140 148 333 216 534 187z m5737 -2965 c505 -1463 915 -2663 911 -2668 -4 -4 -276 -6 -605 -5 l-599 3 -196 605 -197 605 -963 0 -963 0 -196 -602 -196 -603 -603 0 c-332 0 -603 4 -603 8 0 4 290 849 645 1877 355 1029 768 2224 917 2658 l272 787 729 -2 730 -3 917 -2660z m-5270 -665 l0 -2000 -555 0 -555 0 0 2000 0 2000 555 0 555 0 0 -2000z" transform="translate(0.000000,1200.000000) scale(0.100000,-0.100000)"/><path d="M7323 6563 c-177 -543 -325 -996 -328 -1005 -7 -17 29 -18 664 -18 369 0 671 3 671 8 0 4 -146 455 -324 1002 -273 843 -326 995 -342 998 -18 3 -54 -102 -341 -985z" transform="translate(0.000000,1200.000000) scale(0.100000,-0.100000)"/></g></svg>